<?xml version="1.0" encoding="UTF-8" standalone="no"?>
<svg xmlns:dc="http://purl.org/dc/elements/1.1/" xmlns:cc="http://creativecommons.org/ns#" xmlns:rdf="http://www.w3.org/1999/02/22-rdf-syntax-ns#" xmlns:svg="http://www.w3.org/2000/svg" xmlns="http://www.w3.org/2000/svg" viewBox="0 0 217.71249 95.699997" height="96" width="218" xml:space="preserve" version="1.1" id="svg2">
  <metadata id="metadata8"/>
  <defs id="defs6"/>
  <g style="opacity:1" transform="matrix(1.25,0,0,-1.25,0,95.7)" id="g10">
    <g style="opacity:1" transform="scale(0.1,0.1)" id="g12">
      <path id="path14" style="fill:#ba4627;fill-opacity:1;fill-rule:nonzero;stroke:none" d="m 791.758,227.02 -56.695,0 0,-56.7 56.695,0 0,-56.699 56.699,0 0,113.399 -56.699,0"/>
      <path id="path16" style="fill:#ba4627;fill-opacity:1;fill-rule:nonzero;stroke:none" d="m 508.27,765.609 0,-56.699 -56.676,0 0,-85.039 113.379,0 0,141.738 -56.703,0"/>
      <path id="path18" style="fill:#393536;fill-opacity:1;fill-rule:nonzero;stroke:none" d="m 55.6719,537.75 c -2.3047,-7.102 -10.3906,-16.191 -27.6836,-16.191 -8.2891,0 -16.5899,1.992 -22.39455,8.386 -0.89453,0.91 -3.30078,3.801 -4.48828,7.598 C 0,541.148 0,544.438 0,551.938 l 0,41.972 13.2891,0 0,-43.367 c 0,-4.199 0,-5.703 0.7031,-7.805 1.3008,-4.187 5.1016,-8.386 14.4922,-8.386 1.6992,0 11.3984,0 14.2969,7.996 0.8046,2.297 0.8984,4.191 0.8984,8.886 l 0,42.676 13.1836,0 0,-40.672 c 0,-8.097 0.1094,-11.496 -1.1914,-15.488"/>
      <path id="path20" style="fill:#393536;fill-opacity:1;fill-rule:nonzero;stroke:none" d="m 116.086,523.355 -30.8907,49.473 0.8008,-49.473 -12.9023,0 0,70.555 11.8945,0 31.2887,-49.765 -1.597,49.765 12.984,0 0,-70.555 -11.578,0"/>
      <path id="path22" style="fill:#393536;fill-opacity:1;fill-rule:nonzero;stroke:none" d="m 143.699,523.355 12.9883,0 0,70.5547 -12.9883,0 0,-70.5547 z"/>
      <path id="path24" style="fill:#393536;fill-opacity:1;fill-rule:nonzero;stroke:none" d="m 204.285,523.355 -17.793,0 -20.789,70.555 13.899,0 15.781,-55.664 15.387,55.664 13.593,0 -20.078,-70.555"/>
      <path id="path26" style="fill:#393536;fill-opacity:1;fill-rule:nonzero;stroke:none" d="m 233.098,523.355 0,70.555 50.172,0 0,-11.785 -37.176,0 0,-16.594 34.07,0 0,-11.394 -34.07,0 0,-18.887 39.676,0 0,-11.895 -52.672,0"/>
      <path id="path28" style="fill:#393536;fill-opacity:1;fill-rule:nonzero;stroke:none" d="m 330.281,580.426 c -2.301,1.492 -5,2.097 -10.593,2.097 l -10.696,0 0,-21.992 4.692,0 c 7.703,0 12.5,0 15.703,1.699 1.992,1.106 5.293,3.704 5.293,9.395 0,1.797 -0.2,5.996 -4.399,8.801 z m 4.492,-57.071 -13.882,26.18 -11.899,0 0,-26.18 -13.094,0 0,70.555 28.875,0 c 3.207,0 12.7,-0.293 18.997,-8.594 4.101,-5.39 4.304,-11.492 4.304,-13.789 0,-1.101 -0.105,-4.597 -1.304,-7.898 -1.094,-2.891 -4.497,-8.996 -12.59,-11.496 l 15.691,-28.778 -15.098,0"/>
      <path id="path30" style="fill:#393536;fill-opacity:1;fill-rule:nonzero;stroke:none" d="m 408.672,528.852 c -8.496,-7.196 -19.895,-7.293 -23.086,-7.293 -4.199,0 -17.688,0.195 -27.488,10.488 -1.196,1.297 -2.5,2.996 -3.403,4.598 l 11.098,7.695 c 3.102,-4.598 8.902,-10.594 21.895,-10.594 0.593,0 3.093,0 5.195,0.508 1.504,0.293 8.394,2.195 8.394,8.789 0,0.703 -0.093,2.598 -1.304,4.199 -2.395,3.203 -8.789,4.102 -12.285,4.891 l -8.403,1.906 c -3.594,0.801 -7.5,1.602 -10.691,3.301 -3.301,1.699 -10.086,6.191 -10.086,16.387 0,1.601 0.191,6.199 2.691,10.398 3.196,5.391 10.891,11.594 25.18,11.594 6.309,0 18.687,-1.008 28.492,-14.297 l -10.894,-8.098 c -2.2,3.496 -7.2,10.5 -18.293,10.5 -0.696,0 -9.598,0.098 -12.493,-5.402 -0.601,-1.094 -0.796,-2.098 -0.796,-3.192 0,-1.203 0.293,-2.207 0.898,-3.203 1.695,-2.902 5.594,-3.8 12.09,-5.195 l 7.305,-1.602 c 6.687,-1.496 14.082,-3.496 18.789,-8.996 1.992,-2.195 4.089,-5.398 4.089,-11.894 0,-6.395 -2.003,-11.289 -6.894,-15.488"/>
      <path id="path32" style="fill:#393536;fill-opacity:1;fill-rule:nonzero;stroke:none" d="m 427.102,523.355 12.9883,0 0,70.5547 -12.9883,0 0,-70.5547 z"/>
      <path id="path34" style="fill:#393536;fill-opacity:1;fill-rule:nonzero;stroke:none" d="m 482.883,582.027 0,-58.672 -13.195,0 0,58.672 -19.192,0 0,11.883 51.875,0 0,-11.883 -19.488,0"/>
      <path id="path36" style="fill:#393536;fill-opacity:1;fill-rule:nonzero;stroke:none" d="m 539.082,600.816 -8.894,0 5.292,11.993 14.391,0 -10.789,-11.993 z m -26.785,-77.461 0,70.555 50.176,0 0,-11.785 -37.18,0 0,-16.594 34.07,0 0,-11.394 -34.07,0 0,-18.887 39.68,0 0,-11.895 -52.676,0"/>
      <path id="path38" style="fill:#393536;fill-opacity:1;fill-rule:nonzero;stroke:none" d="m 678.367,623.871 0,-283.449 -113.394,0 0,170.066 -113.379,0 0,-170.078 56.676,0 0,-56.691 226.793,0 0,56.703 56.675,0 0,283.449 -113.371,0"/>
      <path id="path40" style="fill:#393536;fill-opacity:1;fill-rule:nonzero;stroke:none" d="m 848.438,283.711 113.379,0 0,56.6992 -113.379,0 0,-56.6992 z"/>
      <path id="path42" style="fill:#ba4627;fill-opacity:1;fill-rule:nonzero;stroke:none" d="m 1018.52,510.473 0,56.703 -56.704,0 0,-283.465 113.394,0 0,226.762 -56.69,0"/>
      <path id="path44" style="fill:#393536;fill-opacity:1;fill-rule:nonzero;stroke:none" d="m 961.816,187.949 0,-131.2498 56.704,0 0,-56.6992 56.69,0 0,187.949 -113.394,0"/>
      <path id="path46" style="fill:#393536;fill-opacity:1;fill-rule:nonzero;stroke:none" d="m 961.816,200.684 0,70.566 13.301,0 0,-58.574 29.923,0 0,-11.992 -43.224,0"/>
      <path id="path48" style="fill:#393536;fill-opacity:1;fill-rule:nonzero;stroke:none" d="m 1020.37,200.684 0,70.566 52.34,0 0,-11.797 -39.35,0 0,-16.582 36.25,0 0,-11.406 -36.25,0 0,-18.887 41.85,0 0,-11.894 -54.84,0"/>
      <path id="path50" style="fill:#393536;fill-opacity:1;fill-rule:nonzero;stroke:none" d="m 1148.59,200.684 0,32.089 -30.29,0 0,-32.089 -13.28,0 0,70.566 13.28,0 0,-26.582 30.29,0 0,26.582 13.29,0 0,-70.566 -13.29,0"/>
      <path id="path52" style="fill:#393536;fill-opacity:1;fill-rule:nonzero;stroke:none" d="m 1202.11,258.555 -9.81,-32.481 19.5,0 -9.69,32.481 z m 17.28,-57.871 -4.1,13.789 -26.48,0 -4.1,-13.789 -14.18,0 23.88,70.566 14.98,0 24.09,-70.566 -14.09,0"/>
      <path id="path54" style="fill:#393536;fill-opacity:1;fill-rule:nonzero;stroke:none" d="m 1270.8,200.684 -17.79,0 -20.78,70.566 13.88,0 15.78,-55.664 15.4,55.664 13.59,0 -20.08,-70.566"/>
      <path id="path56" style="fill:#393536;fill-opacity:1;fill-rule:nonzero;stroke:none" d="m 1334.3,257.754 c -2.31,1.504 -5,2.109 -10.59,2.109 l -10.7,0 0,-21.992 4.69,0 c 7.69,0 12.5,0 15.7,1.699 1.99,1.094 5.29,3.692 5.29,9.395 0,1.797 -0.19,5.996 -4.39,8.789 z m 4.49,-57.07 -13.89,26.191 -11.89,0 0,-26.191 -13.09,0 0,70.566 28.87,0 c 3.2,0 12.69,-0.293 19,-8.594 4.1,-5.39 4.3,-11.504 4.3,-13.789 0,-1.113 -0.1,-4.609 -1.31,-7.91 -1.09,-2.891 -4.49,-8.984 -12.6,-11.484 l 15.71,-28.789 -15.1,0"/>
      <path id="path58" style="fill:#393536;fill-opacity:1;fill-rule:nonzero;stroke:none" d="m 1364.22,200.684 0,70.566 50.17,0 0,-11.797 -37.18,0 0,-16.582 34.08,0 0,-11.406 -34.08,0 0,-18.887 39.68,0 0,-11.894 -52.67,0"/>
      <path id="path60" style="fill:#ba4627;fill-opacity:1;fill-rule:nonzero;stroke:none" d="m 1225.1,58.6953 -6.6,0 -41.49,60.9687 0,-60.9687 -6.48,0 0,70.5587 6.48,0 42.09,-60.3634 -0.6,60.3634 6.6,0 0,-70.5587"/>
      <path id="path62" style="fill:#ba4627;fill-opacity:1;fill-rule:nonzero;stroke:none" d="m 1269.8,125.258 c -17.98,0 -23.49,-17.793 -23.49,-31.2892 0,-13.086 5.21,-31.0743 23.2,-31.0743 21.78,0 23.28,25.7813 23.28,31.4766 0.1,12.7929 -5.09,30.8869 -22.99,30.8869 z M 1291,66.0898 c -6.9,-8.0976 -15.39,-9.1914 -21.2,-9.1914 -8.69,0 -15.89,2.6954 -21.67,9.5899 -5,5.8008 -8.91,15.0898 -8.91,27.5898 0,19.4809 9.59,36.9729 30.58,36.9729 23.38,0 30.28,-20.586 30.18,-36.5744 -0.1,-10.8008 -3.3,-21.6875 -8.98,-28.3868"/>
      <path id="path64" style="fill:#ba4627;fill-opacity:1;fill-rule:nonzero;stroke:none" d="m 1320.82,95.7773 16.58,0 c 4.59,0 8.89,0.0977 11.9,0.6915 7.5,1.5039 10.19,7.1992 10.19,12.9022 0,6.895 -3.4,12.09 -10.29,13.484 -1.99,0.403 -2.91,0.403 -11.8,0.5 l -16.58,0 0,-27.5777 z m 47.27,-37.082 -8.4,0 -22.29,31.2813 -16.58,0 0,-31.2813 -6.7,0 0,70.6567 19.79,0 c 12.28,-0.098 15.39,-0.098 19.78,-1.594 11.6,-4.102 12.4,-15.195 12.4,-18.692 0,-7.39 -3.2,-11.4918 -5.31,-13.5933 -5.1,-4.793 -11.78,-5.1954 -15.58,-5.4961 l 22.89,-31.2813"/>
      <path id="path66" style="fill:#ba4627;fill-opacity:1;fill-rule:nonzero;stroke:none" d="m 1444.69,58.6953 -6.51,0 0.51,59.8637 -23.08,-59.8637 -4.61,0 -23.48,59.8637 0.8,-59.8637 -6.5,0 0,70.5587 7.91,0 23.88,-59.8634 22.78,59.8634 8.3,0 0,-70.5587"/>
      <path id="path68" style="fill:#ba4627;fill-opacity:1;fill-rule:nonzero;stroke:none" d="m 1497.89,85.375 -13.59,35.988 -13.79,-35.988 27.38,0 z m 17.4,-26.6797 -7.3,0 -8.09,21.2891 -31.58,0 -8.01,-21.2891 -7.5,0 28.79,70.5587 5.61,0 28.08,-70.5587"/>
      <path id="path70" style="fill:#ba4627;fill-opacity:1;fill-rule:nonzero;stroke:none" d="m 1577.99,58.6953 -6.6,0 -41.49,60.9687 0,-60.9687 -6.48,0 0,70.5587 6.48,0 42.09,-60.3634 -0.6,60.3634 6.6,0 0,-70.5587"/>
      <path id="path72" style="fill:#ba4627;fill-opacity:1;fill-rule:nonzero;stroke:none" d="m 1604.12,64.6914 10.59,0 c 5.8,0 13.88,-0.0976 18.59,2.1016 6.8,3.0937 12.89,12.9883 12.89,27.0781 0,12.1019 -4.8,23.6919 -13.4,27.4919 -3.88,1.7 -7.69,1.7 -16.38,1.7 l -12.29,0 0,-58.3716 z m -6.8,-5.9961 0,70.5587 18.79,0 c 7.5,-0.098 13.99,-0.098 19.09,-2.102 10.09,-3.992 17.69,-16.484 17.69,-32.9762 0,-13.1953 -4.8,-24.2891 -12.6,-30.3828 -6.38,-5 -12.79,-5.0977 -24.68,-5.0977 l -18.29,0"/>
      <path id="path74" style="fill:#ba4627;fill-opacity:1;fill-rule:nonzero;stroke:none" d="m 1667.11,58.6953 6.6992,0 0,70.5586 -6.6992,0 0,-70.5586 z"/>
      <path id="path76" style="fill:#ba4627;fill-opacity:1;fill-rule:nonzero;stroke:none" d="m 1741.68,58.6953 -48.57,0 0,70.5587 46.07,0 0,-6.191 -39.38,0 0,-25.0903 35.69,0 0,-6.1993 -35.69,0 0,-26.8867 41.88,0 0,-6.1914"/>
    </g>
  </g>
</svg>
